<svg version="1.1" id="Layer_1" xmlns="http://www.w3.org/2000/svg" xmlns:xlink="http://www.w3.org/1999/xlink" x="0px" y="0px"
	 width="100%" viewBox="0 0 792 792" enable-background="new 0 0 792 792" xml:space="preserve">
<path fill="#E7EBED" opacity="1.000000" stroke="none" 
	d="
M358.000000,0.999995 
	C383.687561,1.000000 409.375122,1.000000 435.214294,1.358982 
	C436.205811,2.144195 437.007080,2.824527 437.891327,2.958915 
	C453.608765,5.347670 469.552979,6.712615 485.014954,10.212729 
	C514.217407,16.823252 542.446960,26.589993 569.424316,39.796585 
	C590.180542,49.957653 610.191956,61.371700 628.655090,75.279320 
	C640.754700,84.393517 652.966187,93.517006 664.020813,103.823372 
	C680.187622,118.895836 695.571411,134.776642 709.133301,152.410599 
	C723.263000,170.782944 736.120239,189.900528 747.001343,210.333008 
	C760.639771,235.943115 771.789246,262.595520 778.935303,290.765717 
	C782.380737,304.347748 785.241882,318.092224 787.909302,331.851959 
	C789.424316,339.666809 789.977844,347.666199 791.095703,355.563904 
	C791.174622,356.121277 792.339905,356.524872 793.000000,357.000000 
	C793.000000,383.354218 793.000000,409.708466 792.641418,436.213623 
	C791.862488,437.037567 791.164001,437.671967 791.064392,438.389526 
	C789.989990,446.127686 789.036316,453.882538 787.998779,461.625977 
	C785.487549,480.367859 780.632202,498.549469 775.114258,516.600098 
	C766.132507,545.981323 753.639221,573.842468 737.843384,600.086853 
	C719.743530,630.159119 698.579102,657.985657 672.601562,681.830444 
	C661.978210,691.581604 651.227295,701.233887 640.036560,710.317871 
	C622.576904,724.490784 603.558350,736.395142 583.747620,747.025879 
	C559.721252,759.918762 534.657104,770.406555 508.414246,777.709412 
	C493.220734,781.937500 477.636963,784.818359 462.151001,787.916626 
	C454.668854,789.413513 447.001740,789.976196 439.438080,791.095093 
	C438.877075,791.178101 438.475616,792.339783 438.000000,793.000000 
	C410.979095,793.000000 383.958221,793.000000 356.785950,792.641235 
	C355.961304,791.862183 355.326111,791.164185 354.608643,791.065674 
	C349.121246,790.312195 343.540680,790.049377 338.133179,788.934998 
	C319.187012,785.030640 299.994690,781.895874 281.456909,776.530273 
	C250.478226,767.563782 221.072693,754.370361 193.469482,737.682190 
	C163.862244,719.782593 136.487640,698.836670 112.904472,673.325684 
	C102.780533,662.374207 92.702858,651.325867 83.385796,639.695312 
	C69.427338,622.270935 57.429405,603.462830 46.989578,583.708923 
	C33.424049,558.040710 22.197420,531.401550 15.060953,503.205566 
	C11.625257,489.631256 8.756638,475.899353 6.090406,462.149780 
	C4.574909,454.334473 4.022007,446.334381 2.904312,438.436096 
	C2.825435,437.878693 1.660126,437.475098 1.000002,437.000000 
	C1.000000,410.645782 1.000000,384.291534 1.358550,357.786377 
	C2.483544,352.546204 3.039532,347.414551 4.055360,342.375549 
	C7.275722,326.401123 10.369584,310.391937 14.063871,294.524567 
	C19.508461,271.139435 28.093328,248.784561 38.522015,227.231735 
	C44.974846,213.895767 52.593987,201.106903 60.016251,188.261200 
	C72.172264,167.222824 87.022461,148.067032 103.457954,130.306259 
	C118.573944,113.971375 134.715805,98.635277 152.381454,84.879066 
	C171.205002,70.221214 191.058594,57.253551 212.049194,46.096859 
	C237.074371,32.795757 263.257141,22.102413 290.767487,15.083035 
	C304.657623,11.538908 318.760742,8.773602 332.849518,6.085832 
	C340.669739,4.593937 348.663757,4.022241 356.560822,2.904405 
	C357.119232,2.825362 357.523865,1.660143 358.000000,0.999995 
M455.976868,443.166840 
	C455.984589,422.906891 455.974060,402.646912 456.031769,382.387115 
	C456.036804,380.616150 456.489716,378.846466 457.122742,377.667145 
	C492.308685,445.835114 527.504456,513.998047 562.630981,582.196594 
	C563.643066,584.161621 563.920410,586.505127 564.548828,588.701782 
	C589.888855,588.701782 615.298828,588.701782 640.674072,588.701782 
	C640.674072,460.014374 640.674072,331.625793 640.674072,203.360901 
	C614.951965,203.360901 589.557678,203.360901 563.855713,203.360901 
	C563.855713,274.117340 563.855713,344.513000 563.855713,414.908691 
	C563.608521,414.981842 563.361267,415.054993 563.114075,415.128143 
	C526.917175,344.911957 490.720276,274.695740 454.407532,204.254852 
	C429.916077,204.254852 404.646790,204.254852 379.053986,204.254852 
	C379.053986,261.300018 379.053986,318.090698 379.023254,375.833466 
	C379.033600,398.595276 379.043945,421.357086 379.006927,445.040222 
	C379.006927,493.592316 379.006927,542.144409 379.006927,590.697449 
	C404.962891,590.697449 430.339783,590.697449 455.945709,590.697449 
	C455.945709,541.636536 455.945709,492.877686 455.976868,443.166840 
M223.999954,265.500000 
	C223.999954,244.743027 223.999954,223.986038 223.999954,203.361176 
	C194.284119,203.361176 165.224335,203.361176 136.383667,203.361176 
	C136.383667,332.107086 136.383667,460.491913 136.383667,588.764404 
	C210.038757,588.764404 283.310028,588.764404 356.731018,588.764404 
	C356.731018,555.802856 356.731018,523.077454 356.731018,489.875427 
	C312.404449,489.875427 268.344330,489.875427 224.401810,489.875427 
	C224.197235,489.092316 224.046036,488.783722 224.045944,488.475067 
	C224.023666,414.483368 224.011963,340.491699 223.999954,265.500000 
z"/>
<path fill="#000000" opacity="1.000000" stroke="none" 
	d="
M357.531342,0.999995 
	C357.523865,1.660143 357.119232,2.825362 356.560822,2.904405 
	C348.663757,4.022241 340.669739,4.593937 332.849518,6.085832 
	C318.760742,8.773602 304.657623,11.538908 290.767487,15.083035 
	C263.257141,22.102413 237.074371,32.795757 212.049194,46.096859 
	C191.058594,57.253551 171.205002,70.221214 152.381454,84.879066 
	C134.715805,98.635277 118.573944,113.971375 103.457954,130.306259 
	C87.022461,148.067032 72.172264,167.222824 60.016251,188.261200 
	C52.593987,201.106903 44.974846,213.895767 38.522015,227.231735 
	C28.093328,248.784561 19.508461,271.139435 14.063871,294.524567 
	C10.369584,310.391937 7.275722,326.401123 4.055360,342.375549 
	C3.039532,347.414551 2.483544,352.546204 1.358550,357.317749 
	C1.000000,238.406158 1.000000,119.812317 1.000000,1.000000 
	C119.687469,1.000000 238.375076,1.000000 357.531342,0.999995 
z"/>
<path fill="#000000" opacity="1.000000" stroke="none" 
	d="
M793.000000,356.531342 
	C792.339905,356.524872 791.174622,356.121277 791.095703,355.563904 
	C789.977844,347.666199 789.424316,339.666809 787.909302,331.851959 
	C785.241882,318.092224 782.380737,304.347748 778.935303,290.765717 
	C771.789246,262.595520 760.639771,235.943115 747.001343,210.333008 
	C736.120239,189.900528 723.263000,170.782944 709.133301,152.410599 
	C695.571411,134.776642 680.187622,118.895836 664.020813,103.823372 
	C652.966187,93.517006 640.754700,84.393517 628.655090,75.279320 
	C610.191956,61.371700 590.180542,49.957653 569.424316,39.796585 
	C542.446960,26.589993 514.217407,16.823252 485.014954,10.212729 
	C469.552979,6.712615 453.608765,5.347670 437.891327,2.958915 
	C437.007080,2.824527 436.205811,2.144195 435.682953,1.358982 
	C554.926941,1.000000 673.853882,1.000000 793.000000,1.000000 
	C793.000000,119.354141 793.000000,237.708405 793.000000,356.531342 
z"/>
<path fill="#000000" opacity="1.000000" stroke="none" 
	d="
M1.000002,437.468658 
	C1.660126,437.475098 2.825435,437.878693 2.904312,438.436096 
	C4.022007,446.334381 4.574909,454.334473 6.090406,462.149780 
	C8.756638,475.899353 11.625257,489.631256 15.060953,503.205566 
	C22.197420,531.401550 33.424049,558.040710 46.989578,583.708923 
	C57.429405,603.462830 69.427338,622.270935 83.385796,639.695312 
	C92.702858,651.325867 102.780533,662.374207 112.904472,673.325684 
	C136.487640,698.836670 163.862244,719.782593 193.469482,737.682190 
	C221.072693,754.370361 250.478226,767.563782 281.456909,776.530273 
	C299.994690,781.895874 319.187012,785.030640 338.133179,788.934998 
	C343.540680,790.049377 349.121246,790.312195 354.608643,791.065674 
	C355.326111,791.164185 355.961304,791.862183 356.317322,792.641235 
	C237.739487,793.000000 119.478981,793.000000 1.000000,793.000000 
	C1.000000,674.645874 1.000000,556.291565 1.000002,437.468658 
z"/>
<path fill="#000000" opacity="1.000000" stroke="none" 
	d="
M438.468658,793.000000 
	C438.475616,792.339783 438.877075,791.178101 439.438080,791.095093 
	C447.001740,789.976196 454.668854,789.413513 462.151001,787.916626 
	C477.636963,784.818359 493.220734,781.937500 508.414246,777.709412 
	C534.657104,770.406555 559.721252,759.918762 583.747620,747.025879 
	C603.558350,736.395142 622.576904,724.490784 640.036560,710.317871 
	C651.227295,701.233887 661.978210,691.581604 672.601562,681.830444 
	C698.579102,657.985657 719.743530,630.159119 737.843384,600.086853 
	C753.639221,573.842468 766.132507,545.981323 775.114258,516.600098 
	C780.632202,498.549469 785.487549,480.367859 787.998779,461.625977 
	C789.036316,453.882538 789.989990,446.127686 791.064392,438.389526 
	C791.164001,437.671967 791.862488,437.037567 792.641418,436.682251 
	C793.000000,555.593628 793.000000,674.187256 793.000000,793.000000 
	C674.979187,793.000000 556.958252,793.000000 438.468658,793.000000 
z"/>
<path fill="#083D74" opacity="1.000000" stroke="none" 
	d="
M379.053986,374.881409 
	C379.053986,318.090698 379.053986,261.300018 379.053986,204.254852 
	C404.646790,204.254852 429.916077,204.254852 454.407532,204.254852 
	C490.720276,274.695740 526.917175,344.911957 563.114075,415.128143 
	C563.361267,415.054993 563.608521,414.981842 563.855713,414.908691 
	C563.855713,344.513000 563.855713,274.117340 563.855713,203.360901 
	C589.557678,203.360901 614.951965,203.360901 640.674072,203.360901 
	C640.674072,331.625793 640.674072,460.014374 640.674072,588.701782 
	C615.298828,588.701782 589.888855,588.701782 564.548828,588.701782 
	C563.920410,586.505127 563.643066,584.161621 562.630981,582.196594 
	C527.504456,513.998047 492.308685,445.835114 456.799438,376.991455 
	C454.850250,375.877319 453.226166,375.064697 451.598114,375.056580 
	C427.417053,374.935547 403.235443,374.921082 379.053986,374.881409 
z"/>
<path fill="#083D74" opacity="1.000000" stroke="none" 
	d="
M223.999954,266.000000 
	C224.011963,340.491699 224.023666,414.483368 224.045944,488.475067 
	C224.046036,488.783722 224.197235,489.092316 224.401810,489.875427 
	C268.344330,489.875427 312.404449,489.875427 356.731018,489.875427 
	C356.731018,523.077454 356.731018,555.802856 356.731018,588.764404 
	C283.310028,588.764404 210.038757,588.764404 136.383667,588.764404 
	C136.383667,460.491913 136.383667,332.107086 136.383667,203.361176 
	C165.224335,203.361176 194.284119,203.361176 223.999954,203.361176 
	C223.999954,223.986038 223.999954,244.743027 223.999954,266.000000 
z"/>
<path fill="#083D74" opacity="1.000000" stroke="none" 
	d="
M455.945709,444.118835 
	C455.945709,492.877686 455.945709,541.636536 455.945709,590.697449 
	C430.339783,590.697449 404.962891,590.697449 379.006927,590.697449 
	C379.006927,542.144409 379.006927,493.592316 379.493164,444.528687 
	C405.301483,444.051025 430.623596,444.084930 455.945709,444.118835 
z"/>
<path fill="#DCDCD9" opacity="1.000000" stroke="none" 
	d="
M455.961304,443.642822 
	C430.623596,444.084930 405.301483,444.051025 379.516846,444.067993 
	C379.043945,421.357086 379.033600,398.595276 379.038635,375.357422 
	C403.235443,374.921082 427.417053,374.935547 451.598114,375.056580 
	C453.226166,375.064697 454.850250,375.877319 456.605347,376.695984 
	C456.489716,378.846466 456.036804,380.616150 456.031769,382.387115 
	C455.974060,402.646912 455.984589,422.906891 455.961304,443.642822 
z"/>
</svg>